<svg xmlns="http://www.w3.org/2000/svg" width="48" height="48" viewBox="0 0 48 48">
  <rect width="48" height="48" rx="10" fill="#0f172a"/>
  <g transform="translate(8,8)" stroke-linecap="round" stroke-linejoin="round">
    <circle cx="16" cy="16" r="4" fill="#818cf8" opacity="0.3"/>
    <circle cx="16" cy="16" r="8" fill="none" stroke="#818cf8" stroke-width="1" opacity="0.2"/>
    <circle cx="16" cy="16" r="12" fill="none" stroke="#818cf8" stroke-width="0.5" opacity="0.1"/>
    <path d="M16 4 L18 10 L16 8 L14 10 Z" fill="#60a5fa"/>
    <rect x="14" y="13" width="4" height="6" rx="1" fill="#818cf8"/>
    <rect x="10" y="14.5" width="12" height="3" rx="1" fill="#60a5fa"/>
    <line x1="10" y1="16" x2="6" y2="14" stroke="#60a5fa" stroke-width="1.5"/>
    <line x1="22" y1="16" x2="26" y2="14" stroke="#60a5fa" stroke-width="1.5"/>
    <rect x="4" y="12.5" width="4" height="3" rx="0.5" fill="#3b82f6" opacity="0.8"/>
    <rect x="24" y="12.5" width="4" height="3" rx="0.5" fill="#3b82f6" opacity="0.8"/>
    <circle cx="16" cy="16" r="1.5" fill="#e2e8f0"/>
    <line x1="16" y1="20" x2="14" y2="26" stroke="#475569" stroke-width="0.8" stroke-dasharray="1.5 1.5"/>
    <line x1="16" y1="20" x2="18" y2="26" stroke="#475569" stroke-width="0.8" stroke-dasharray="1.5 1.5"/>
    <circle cx="14" cy="27" r="1" fill="#10b981" opacity="0.6"/>
    <circle cx="18" cy="27" r="1" fill="#10b981" opacity="0.6"/>
  </g>
</svg>
